<?xml version="1.0" standalone="no"?>
<!DOCTYPE svg PUBLIC "-//W3C//DTD SVG 20010904//EN"
 "http://www.w3.org/TR/2001/REC-SVG-20010904/DTD/svg10.dtd">
<svg version="1.0" xmlns="http://www.w3.org/2000/svg"
 width="512.000000pt" height="512.000000pt" viewBox="0 0 512.000000 512.000000"
 preserveAspectRatio="xMidYMid meet">
<metadata>
Created by potrace 1.14, written by Peter Selinger 2001-2017
</metadata>
<g transform="translate(0.000000,512.000000) scale(0.100000,-0.100000)"
fill="#000000" stroke="none">
<path d="M1405 4703 c-961 -158 -1001 -165 -1035 -192 -43 -35 -77 -83 -90
-130 -16 -58 -13 -575 4 -614 18 -42 41 -62 166 -141 l105 -66 0 -342 c0 -316
1 -346 19 -378 30 -56 38 -63 247 -197 159 -101 197 -130 187 -139 -7 -7 -227
-152 -488 -322 -261 -170 -485 -319 -497 -330 -31 -28 -31 -81 0 -110 12 -11
42 -25 67 -31 25 -5 601 -109 1280 -231 1166 -208 1236 -222 1257 -245 39 -44
43 -86 43 -426 0 -326 -6 -389 -35 -389 -8 0 -579 101 -1270 225 -690 124
-1269 225 -1286 225 -68 0 -102 -82 -56 -136 22 -25 41 -30 318 -80 1933 -348
2267 -406 2314 -402 49 4 85 28 930 632 484 346 893 640 908 655 56 51 62 73
67 246 l5 159 235 38 c284 45 275 43 300 70 48 51 7 138 -65 138 -29 0 -841
-129 -2333 -370 -226 -37 -230 -37 -242 -4 -13 34 -13 588 0 635 6 20 19 44
29 53 14 13 313 65 1287 221 698 113 1282 210 1297 216 15 7 32 20 37 30 15
28 12 75 -8 97 -15 18 -1194 711 -1216 715 -5 1 -17 -29 -28 -68 -27 -98 -20
-259 15 -367 14 -43 24 -78 23 -79 0 0 -460 -74 -1021 -163 -733 -118 -1022
-161 -1027 -152 -4 6 -8 120 -8 254 0 198 3 248 15 272 9 17 17 30 18 30 2 0
474 76 1050 169 697 113 1056 174 1072 185 32 21 43 77 21 111 -9 13 -31 32
-49 41 -17 9 -361 205 -763 435 -595 341 -737 419 -765 418 -19 -1 -484 -75
-1034 -166z"/>
</g>
</svg>
